<mxfile host="app.diagrams.net" agent="Mozilla/5.0 (Windows NT 10.0; Win64; x64) AppleWebKit/537.36 (KHTML, like Gecko) Chrome/131.0.0.0 Safari/537.36 Edg/131.0.0.0" version="25.0.1">
  <diagram id="C5RBs43oDa-KdzZeNtuy" name="Page-1">
    <mxGraphModel dx="1938" dy="1695" grid="1" gridSize="10" guides="1" tooltips="1" connect="1" arrows="1" fold="1" page="1" pageScale="1" pageWidth="827" pageHeight="1169" math="0" shadow="0">
      <root>
        <mxCell id="WIyWlLk6GJQsqaUBKTNV-0" />
        <mxCell id="WIyWlLk6GJQsqaUBKTNV-1" parent="WIyWlLk6GJQsqaUBKTNV-0" />
        <mxCell id="znPdE1hkmuj4i7SLbsEQ-0" value="FIA" style="rounded=0;whiteSpace=wrap;html=1;" parent="WIyWlLk6GJQsqaUBKTNV-1" vertex="1">
          <mxGeometry x="770" y="-644.5" width="120" height="60" as="geometry" />
        </mxCell>
        <mxCell id="znPdE1hkmuj4i7SLbsEQ-1" value="F1" style="rounded=0;whiteSpace=wrap;html=1;" parent="WIyWlLk6GJQsqaUBKTNV-1" vertex="1">
          <mxGeometry x="310" y="-10" width="120" height="60" as="geometry" />
        </mxCell>
        <mxCell id="znPdE1hkmuj4i7SLbsEQ-2" value="WEC" style="rounded=0;whiteSpace=wrap;html=1;" parent="WIyWlLk6GJQsqaUBKTNV-1" vertex="1">
          <mxGeometry x="770" y="100" width="120" height="60" as="geometry" />
        </mxCell>
        <mxCell id="znPdE1hkmuj4i7SLbsEQ-3" value="WRC" style="rounded=0;whiteSpace=wrap;html=1;" parent="WIyWlLk6GJQsqaUBKTNV-1" vertex="1">
          <mxGeometry x="1230" y="-10" width="120" height="60" as="geometry" />
        </mxCell>
        <mxCell id="znPdE1hkmuj4i7SLbsEQ-5" value="Equipos" style="rounded=0;whiteSpace=wrap;html=1;" parent="WIyWlLk6GJQsqaUBKTNV-1" vertex="1">
          <mxGeometry x="-250" y="-10" width="120" height="60" as="geometry" />
        </mxCell>
        <mxCell id="znPdE1hkmuj4i7SLbsEQ-6" value="Team Principal" style="rounded=0;whiteSpace=wrap;html=1;" parent="WIyWlLk6GJQsqaUBKTNV-1" vertex="1">
          <mxGeometry x="-250" y="-325" width="120" height="60" as="geometry" />
        </mxCell>
        <mxCell id="znPdE1hkmuj4i7SLbsEQ-7" value="Pilotos" style="rounded=0;whiteSpace=wrap;html=1;" parent="WIyWlLk6GJQsqaUBKTNV-1" vertex="1">
          <mxGeometry x="-540" y="-10" width="120" height="60" as="geometry" />
        </mxCell>
        <mxCell id="znPdE1hkmuj4i7SLbsEQ-8" value="Ingeniero" style="rounded=0;whiteSpace=wrap;html=1;" parent="WIyWlLk6GJQsqaUBKTNV-1" vertex="1">
          <mxGeometry x="-250" y="255" width="120" height="60" as="geometry" />
        </mxCell>
        <mxCell id="znPdE1hkmuj4i7SLbsEQ-13" value="Hypercars" style="rounded=0;whiteSpace=wrap;html=1;" parent="WIyWlLk6GJQsqaUBKTNV-1" vertex="1">
          <mxGeometry x="530" y="615" width="120" height="60" as="geometry" />
        </mxCell>
        <mxCell id="znPdE1hkmuj4i7SLbsEQ-14" value="LMP2" style="rounded=0;whiteSpace=wrap;html=1;" parent="WIyWlLk6GJQsqaUBKTNV-1" vertex="1">
          <mxGeometry x="770" y="615" width="120" height="60" as="geometry" />
        </mxCell>
        <mxCell id="znPdE1hkmuj4i7SLbsEQ-15" value="LMGTE" style="rounded=0;whiteSpace=wrap;html=1;" parent="WIyWlLk6GJQsqaUBKTNV-1" vertex="1">
          <mxGeometry x="1010" y="615" width="120" height="60" as="geometry" />
        </mxCell>
        <mxCell id="znPdE1hkmuj4i7SLbsEQ-16" value="Rally Cross" style="rounded=0;whiteSpace=wrap;html=1;" parent="WIyWlLk6GJQsqaUBKTNV-1" vertex="1">
          <mxGeometry x="1640" y="-130" width="120" height="60" as="geometry" />
        </mxCell>
        <mxCell id="znPdE1hkmuj4i7SLbsEQ-17" value="Rally Dakar" style="rounded=0;whiteSpace=wrap;html=1;" parent="WIyWlLk6GJQsqaUBKTNV-1" vertex="1">
          <mxGeometry x="1640" y="125" width="120" height="60" as="geometry" />
        </mxCell>
        <mxCell id="znPdE1hkmuj4i7SLbsEQ-22" value="Pista" style="rounded=0;whiteSpace=wrap;html=1;" parent="WIyWlLk6GJQsqaUBKTNV-1" vertex="1">
          <mxGeometry x="-460" y="555" width="120" height="60" as="geometry" />
        </mxCell>
        <mxCell id="znPdE1hkmuj4i7SLbsEQ-23" value="Automoción" style="rounded=0;whiteSpace=wrap;html=1;" parent="WIyWlLk6GJQsqaUBKTNV-1" vertex="1">
          <mxGeometry x="-250" y="555" width="120" height="60" as="geometry" />
        </mxCell>
        <mxCell id="znPdE1hkmuj4i7SLbsEQ-24" value="Aerodinámica" style="rounded=0;whiteSpace=wrap;html=1;" parent="WIyWlLk6GJQsqaUBKTNV-1" vertex="1">
          <mxGeometry x="-40" y="555" width="120" height="60" as="geometry" />
        </mxCell>
        <mxCell id="znPdE1hkmuj4i7SLbsEQ-26" value="Dirige" style="rhombus;whiteSpace=wrap;html=1;" parent="WIyWlLk6GJQsqaUBKTNV-1" vertex="1">
          <mxGeometry x="-230" y="-165" width="80" height="80" as="geometry" />
        </mxCell>
        <object label="Coche" id_coche="" id="znPdE1hkmuj4i7SLbsEQ-27">
          <mxCell style="rounded=0;whiteSpace=wrap;html=1;" parent="WIyWlLk6GJQsqaUBKTNV-1" vertex="1">
            <mxGeometry x="-540" y="255" width="120" height="60" as="geometry" />
          </mxCell>
        </object>
        <mxCell id="znPdE1hkmuj4i7SLbsEQ-29" value="Normas" style="rounded=0;whiteSpace=wrap;html=1;" parent="WIyWlLk6GJQsqaUBKTNV-1" vertex="1">
          <mxGeometry x="770" y="-220" width="120" height="60" as="geometry" />
        </mxCell>
        <mxCell id="znPdE1hkmuj4i7SLbsEQ-30" value="Establece" style="rhombus;whiteSpace=wrap;html=1;" parent="WIyWlLk6GJQsqaUBKTNV-1" vertex="1">
          <mxGeometry x="790" y="-440" width="80" height="80" as="geometry" />
        </mxCell>
        <mxCell id="znPdE1hkmuj4i7SLbsEQ-31" value="Regulan" style="rhombus;whiteSpace=wrap;html=1;" parent="WIyWlLk6GJQsqaUBKTNV-1" vertex="1">
          <mxGeometry x="790" y="-20" width="80" height="80" as="geometry" />
        </mxCell>
        <mxCell id="znPdE1hkmuj4i7SLbsEQ-32" value="Poseen" style="rhombus;whiteSpace=wrap;html=1;" parent="WIyWlLk6GJQsqaUBKTNV-1" vertex="1">
          <mxGeometry x="60" y="-20" width="80" height="80" as="geometry" />
        </mxCell>
        <mxCell id="plnHMKiaKR2l0mQCvcWy-0" value="" style="triangle;whiteSpace=wrap;html=1;rotation=90;" parent="WIyWlLk6GJQsqaUBKTNV-1" vertex="1">
          <mxGeometry x="-220" y="355" width="60" height="80" as="geometry" />
        </mxCell>
        <mxCell id="plnHMKiaKR2l0mQCvcWy-1" value="" style="ellipse;whiteSpace=wrap;html=1;aspect=fixed;" parent="WIyWlLk6GJQsqaUBKTNV-1" vertex="1">
          <mxGeometry x="-210" y="405" width="40" height="40" as="geometry" />
        </mxCell>
        <mxCell id="plnHMKiaKR2l0mQCvcWy-6" value="" style="verticalLabelPosition=bottom;verticalAlign=top;html=1;shape=mxgraph.basic.arc;startAngle=0.42267199667462585;endAngle=0.831464387473491;rotation=-45;" parent="WIyWlLk6GJQsqaUBKTNV-1" vertex="1">
          <mxGeometry x="-240" y="345" width="100" height="100" as="geometry" />
        </mxCell>
        <mxCell id="plnHMKiaKR2l0mQCvcWy-10" value="" style="endArrow=none;html=1;rounded=0;entryX=0.141;entryY=0.848;entryDx=0;entryDy=0;entryPerimeter=0;exitX=0.5;exitY=0;exitDx=0;exitDy=0;" parent="WIyWlLk6GJQsqaUBKTNV-1" source="znPdE1hkmuj4i7SLbsEQ-22" target="plnHMKiaKR2l0mQCvcWy-6" edge="1">
          <mxGeometry width="50" height="50" relative="1" as="geometry">
            <mxPoint x="-360" y="345" as="sourcePoint" />
            <mxPoint x="-310" y="295" as="targetPoint" />
          </mxGeometry>
        </mxCell>
        <mxCell id="plnHMKiaKR2l0mQCvcWy-11" value="" style="endArrow=none;html=1;rounded=0;entryX=0.126;entryY=0.839;entryDx=0;entryDy=0;entryPerimeter=0;exitX=0.5;exitY=0;exitDx=0;exitDy=0;" parent="WIyWlLk6GJQsqaUBKTNV-1" source="znPdE1hkmuj4i7SLbsEQ-23" target="plnHMKiaKR2l0mQCvcWy-6" edge="1">
          <mxGeometry width="50" height="50" relative="1" as="geometry">
            <mxPoint x="-200" y="535" as="sourcePoint" />
            <mxPoint x="-150" y="485" as="targetPoint" />
          </mxGeometry>
        </mxCell>
        <mxCell id="plnHMKiaKR2l0mQCvcWy-12" value="" style="endArrow=none;html=1;rounded=0;exitX=0.5;exitY=0;exitDx=0;exitDy=0;entryX=0.126;entryY=0.836;entryDx=0;entryDy=0;entryPerimeter=0;" parent="WIyWlLk6GJQsqaUBKTNV-1" source="znPdE1hkmuj4i7SLbsEQ-24" target="plnHMKiaKR2l0mQCvcWy-6" edge="1">
          <mxGeometry width="50" height="50" relative="1" as="geometry">
            <mxPoint x="-200" y="535" as="sourcePoint" />
            <mxPoint x="-170" y="465" as="targetPoint" />
          </mxGeometry>
        </mxCell>
        <mxCell id="plnHMKiaKR2l0mQCvcWy-14" value="" style="endArrow=none;html=1;rounded=0;entryX=0.5;entryY=1;entryDx=0;entryDy=0;exitX=0;exitY=0.5;exitDx=0;exitDy=0;" parent="WIyWlLk6GJQsqaUBKTNV-1" source="plnHMKiaKR2l0mQCvcWy-0" target="znPdE1hkmuj4i7SLbsEQ-8" edge="1">
          <mxGeometry width="50" height="50" relative="1" as="geometry">
            <mxPoint x="-310" y="425" as="sourcePoint" />
            <mxPoint x="-260" y="375" as="targetPoint" />
          </mxGeometry>
        </mxCell>
        <mxCell id="plnHMKiaKR2l0mQCvcWy-15" value="" style="endArrow=none;html=1;rounded=0;entryX=0.5;entryY=1;entryDx=0;entryDy=0;exitX=0.5;exitY=0;exitDx=0;exitDy=0;" parent="WIyWlLk6GJQsqaUBKTNV-1" source="znPdE1hkmuj4i7SLbsEQ-26" target="znPdE1hkmuj4i7SLbsEQ-6" edge="1">
          <mxGeometry width="50" height="50" relative="1" as="geometry">
            <mxPoint x="-310" y="-55" as="sourcePoint" />
            <mxPoint x="-260" y="-105" as="targetPoint" />
          </mxGeometry>
        </mxCell>
        <mxCell id="plnHMKiaKR2l0mQCvcWy-16" value="" style="endArrow=none;html=1;rounded=0;entryX=0.5;entryY=1;entryDx=0;entryDy=0;exitX=0.5;exitY=0;exitDx=0;exitDy=0;" parent="WIyWlLk6GJQsqaUBKTNV-1" source="znPdE1hkmuj4i7SLbsEQ-5" target="znPdE1hkmuj4i7SLbsEQ-26" edge="1">
          <mxGeometry width="50" height="50" relative="1" as="geometry">
            <mxPoint x="-310" y="-55" as="sourcePoint" />
            <mxPoint x="-260" y="-105" as="targetPoint" />
          </mxGeometry>
        </mxCell>
        <mxCell id="plnHMKiaKR2l0mQCvcWy-17" value="Tienen" style="rhombus;whiteSpace=wrap;html=1;" parent="WIyWlLk6GJQsqaUBKTNV-1" vertex="1">
          <mxGeometry x="-230" y="125" width="80" height="80" as="geometry" />
        </mxCell>
        <mxCell id="plnHMKiaKR2l0mQCvcWy-18" value="" style="endArrow=none;html=1;rounded=0;entryX=0.5;entryY=1;entryDx=0;entryDy=0;exitX=0.5;exitY=0;exitDx=0;exitDy=0;" parent="WIyWlLk6GJQsqaUBKTNV-1" source="plnHMKiaKR2l0mQCvcWy-17" target="znPdE1hkmuj4i7SLbsEQ-5" edge="1">
          <mxGeometry width="50" height="50" relative="1" as="geometry">
            <mxPoint x="-310" y="185" as="sourcePoint" />
            <mxPoint x="-260" y="135" as="targetPoint" />
          </mxGeometry>
        </mxCell>
        <mxCell id="plnHMKiaKR2l0mQCvcWy-19" value="" style="endArrow=none;html=1;rounded=0;entryX=0.5;entryY=1;entryDx=0;entryDy=0;exitX=0.5;exitY=0;exitDx=0;exitDy=0;" parent="WIyWlLk6GJQsqaUBKTNV-1" source="znPdE1hkmuj4i7SLbsEQ-8" target="plnHMKiaKR2l0mQCvcWy-17" edge="1">
          <mxGeometry width="50" height="50" relative="1" as="geometry">
            <mxPoint x="-310" y="185" as="sourcePoint" />
            <mxPoint x="-260" y="135" as="targetPoint" />
          </mxGeometry>
        </mxCell>
        <mxCell id="plnHMKiaKR2l0mQCvcWy-20" value="" style="endArrow=none;html=1;rounded=0;entryX=0;entryY=0.5;entryDx=0;entryDy=0;exitX=1;exitY=0.5;exitDx=0;exitDy=0;" parent="WIyWlLk6GJQsqaUBKTNV-1" source="znPdE1hkmuj4i7SLbsEQ-5" target="znPdE1hkmuj4i7SLbsEQ-32" edge="1">
          <mxGeometry width="50" height="50" relative="1" as="geometry">
            <mxPoint x="-310" y="65" as="sourcePoint" />
            <mxPoint x="-260" y="15" as="targetPoint" />
          </mxGeometry>
        </mxCell>
        <mxCell id="plnHMKiaKR2l0mQCvcWy-21" value="" style="endArrow=none;html=1;rounded=0;entryX=0;entryY=0.5;entryDx=0;entryDy=0;exitX=1;exitY=0.5;exitDx=0;exitDy=0;" parent="WIyWlLk6GJQsqaUBKTNV-1" source="znPdE1hkmuj4i7SLbsEQ-32" target="znPdE1hkmuj4i7SLbsEQ-1" edge="1">
          <mxGeometry width="50" height="50" relative="1" as="geometry">
            <mxPoint x="-310" y="65" as="sourcePoint" />
            <mxPoint x="-260" y="15" as="targetPoint" />
          </mxGeometry>
        </mxCell>
        <mxCell id="plnHMKiaKR2l0mQCvcWy-22" value="Coches" style="rounded=0;whiteSpace=wrap;html=1;" parent="WIyWlLk6GJQsqaUBKTNV-1" vertex="1">
          <mxGeometry x="770" y="325" width="120" height="60" as="geometry" />
        </mxCell>
        <mxCell id="plnHMKiaKR2l0mQCvcWy-23" value="Pilota" style="rhombus;whiteSpace=wrap;html=1;" parent="WIyWlLk6GJQsqaUBKTNV-1" vertex="1">
          <mxGeometry x="-520" y="125" width="80" height="80" as="geometry" />
        </mxCell>
        <mxCell id="plnHMKiaKR2l0mQCvcWy-24" value="" style="endArrow=none;html=1;rounded=0;entryX=0.5;entryY=1;entryDx=0;entryDy=0;exitX=0.5;exitY=0;exitDx=0;exitDy=0;" parent="WIyWlLk6GJQsqaUBKTNV-1" source="plnHMKiaKR2l0mQCvcWy-23" target="znPdE1hkmuj4i7SLbsEQ-7" edge="1">
          <mxGeometry width="50" height="50" relative="1" as="geometry">
            <mxPoint x="-230" y="75" as="sourcePoint" />
            <mxPoint x="-180" y="25" as="targetPoint" />
          </mxGeometry>
        </mxCell>
        <mxCell id="plnHMKiaKR2l0mQCvcWy-25" value="" style="endArrow=none;html=1;rounded=0;entryX=0.5;entryY=1;entryDx=0;entryDy=0;exitX=0.5;exitY=0;exitDx=0;exitDy=0;" parent="WIyWlLk6GJQsqaUBKTNV-1" source="znPdE1hkmuj4i7SLbsEQ-27" target="plnHMKiaKR2l0mQCvcWy-23" edge="1">
          <mxGeometry width="50" height="50" relative="1" as="geometry">
            <mxPoint x="-230" y="75" as="sourcePoint" />
            <mxPoint x="-180" y="25" as="targetPoint" />
          </mxGeometry>
        </mxCell>
        <mxCell id="plnHMKiaKR2l0mQCvcWy-26" value="Tienen" style="rhombus;whiteSpace=wrap;html=1;" parent="WIyWlLk6GJQsqaUBKTNV-1" vertex="1">
          <mxGeometry x="-370" y="-20" width="80" height="80" as="geometry" />
        </mxCell>
        <mxCell id="plnHMKiaKR2l0mQCvcWy-27" value="" style="endArrow=none;html=1;rounded=0;entryX=1;entryY=0.5;entryDx=0;entryDy=0;exitX=0;exitY=0.5;exitDx=0;exitDy=0;" parent="WIyWlLk6GJQsqaUBKTNV-1" source="znPdE1hkmuj4i7SLbsEQ-5" target="plnHMKiaKR2l0mQCvcWy-26" edge="1">
          <mxGeometry width="50" height="50" relative="1" as="geometry">
            <mxPoint x="-230" y="75" as="sourcePoint" />
            <mxPoint x="-180" y="25" as="targetPoint" />
          </mxGeometry>
        </mxCell>
        <mxCell id="plnHMKiaKR2l0mQCvcWy-28" value="" style="endArrow=none;html=1;rounded=0;entryX=0;entryY=0.5;entryDx=0;entryDy=0;exitX=1;exitY=0.5;exitDx=0;exitDy=0;" parent="WIyWlLk6GJQsqaUBKTNV-1" source="znPdE1hkmuj4i7SLbsEQ-7" target="plnHMKiaKR2l0mQCvcWy-26" edge="1">
          <mxGeometry width="50" height="50" relative="1" as="geometry">
            <mxPoint x="-230" y="75" as="sourcePoint" />
            <mxPoint x="-180" y="25" as="targetPoint" />
          </mxGeometry>
        </mxCell>
        <mxCell id="plnHMKiaKR2l0mQCvcWy-29" value="" style="triangle;whiteSpace=wrap;html=1;rotation=90;" parent="WIyWlLk6GJQsqaUBKTNV-1" vertex="1">
          <mxGeometry x="800" y="445" width="60" height="80" as="geometry" />
        </mxCell>
        <mxCell id="plnHMKiaKR2l0mQCvcWy-30" value="" style="ellipse;whiteSpace=wrap;html=1;aspect=fixed;" parent="WIyWlLk6GJQsqaUBKTNV-1" vertex="1">
          <mxGeometry x="810" y="495" width="40" height="40" as="geometry" />
        </mxCell>
        <mxCell id="plnHMKiaKR2l0mQCvcWy-31" value="Compiten" style="rhombus;whiteSpace=wrap;html=1;" parent="WIyWlLk6GJQsqaUBKTNV-1" vertex="1">
          <mxGeometry x="790" y="200" width="80" height="80" as="geometry" />
        </mxCell>
        <mxCell id="plnHMKiaKR2l0mQCvcWy-32" value="" style="endArrow=none;html=1;rounded=0;entryX=0.5;entryY=1;entryDx=0;entryDy=0;exitX=0.5;exitY=0;exitDx=0;exitDy=0;" parent="WIyWlLk6GJQsqaUBKTNV-1" source="plnHMKiaKR2l0mQCvcWy-22" target="plnHMKiaKR2l0mQCvcWy-31" edge="1">
          <mxGeometry width="50" height="50" relative="1" as="geometry">
            <mxPoint x="960" y="280" as="sourcePoint" />
            <mxPoint x="1010" y="230" as="targetPoint" />
          </mxGeometry>
        </mxCell>
        <mxCell id="plnHMKiaKR2l0mQCvcWy-33" value="" style="endArrow=none;html=1;rounded=0;entryX=0.5;entryY=1;entryDx=0;entryDy=0;exitX=0;exitY=0.5;exitDx=0;exitDy=0;" parent="WIyWlLk6GJQsqaUBKTNV-1" source="plnHMKiaKR2l0mQCvcWy-29" target="plnHMKiaKR2l0mQCvcWy-22" edge="1">
          <mxGeometry width="50" height="50" relative="1" as="geometry">
            <mxPoint x="830" y="450" as="sourcePoint" />
            <mxPoint x="1010" y="230" as="targetPoint" />
          </mxGeometry>
        </mxCell>
        <mxCell id="plnHMKiaKR2l0mQCvcWy-34" value="" style="verticalLabelPosition=bottom;verticalAlign=top;html=1;shape=mxgraph.basic.arc;startAngle=0.5283443714492546;endAngle=0.9621472365003013;rotation=-90;" parent="WIyWlLk6GJQsqaUBKTNV-1" vertex="1">
          <mxGeometry x="780" y="435" width="100" height="100" as="geometry" />
        </mxCell>
        <mxCell id="plnHMKiaKR2l0mQCvcWy-35" value="" style="endArrow=none;html=1;rounded=0;exitX=0.5;exitY=0;exitDx=0;exitDy=0;entryX=0.001;entryY=0.5;entryDx=0;entryDy=0;entryPerimeter=0;" parent="WIyWlLk6GJQsqaUBKTNV-1" source="znPdE1hkmuj4i7SLbsEQ-14" target="plnHMKiaKR2l0mQCvcWy-34" edge="1">
          <mxGeometry width="50" height="50" relative="1" as="geometry">
            <mxPoint x="950" y="540" as="sourcePoint" />
            <mxPoint x="1000" y="490" as="targetPoint" />
          </mxGeometry>
        </mxCell>
        <mxCell id="abRWXBSKvTAX0bOtiReh-0" value="" style="endArrow=none;html=1;rounded=0;exitX=-0.001;exitY=0.501;exitDx=0;exitDy=0;exitPerimeter=0;entryX=0.5;entryY=0;entryDx=0;entryDy=0;" edge="1" parent="WIyWlLk6GJQsqaUBKTNV-1" source="plnHMKiaKR2l0mQCvcWy-34" target="znPdE1hkmuj4i7SLbsEQ-13">
          <mxGeometry width="50" height="50" relative="1" as="geometry">
            <mxPoint x="780" y="440" as="sourcePoint" />
            <mxPoint x="830" y="390" as="targetPoint" />
          </mxGeometry>
        </mxCell>
        <mxCell id="abRWXBSKvTAX0bOtiReh-1" value="" style="endArrow=none;html=1;rounded=0;entryX=-0.004;entryY=0.503;entryDx=0;entryDy=0;entryPerimeter=0;exitX=0.5;exitY=0;exitDx=0;exitDy=0;" edge="1" parent="WIyWlLk6GJQsqaUBKTNV-1" source="znPdE1hkmuj4i7SLbsEQ-15" target="plnHMKiaKR2l0mQCvcWy-34">
          <mxGeometry width="50" height="50" relative="1" as="geometry">
            <mxPoint x="910" y="580" as="sourcePoint" />
            <mxPoint x="960" y="530" as="targetPoint" />
          </mxGeometry>
        </mxCell>
        <mxCell id="abRWXBSKvTAX0bOtiReh-2" value="" style="endArrow=none;html=1;rounded=0;entryX=0.5;entryY=1;entryDx=0;entryDy=0;exitX=0.5;exitY=0;exitDx=0;exitDy=0;" edge="1" parent="WIyWlLk6GJQsqaUBKTNV-1" source="plnHMKiaKR2l0mQCvcWy-31" target="znPdE1hkmuj4i7SLbsEQ-2">
          <mxGeometry width="50" height="50" relative="1" as="geometry">
            <mxPoint x="860" y="250" as="sourcePoint" />
            <mxPoint x="910" y="200" as="targetPoint" />
          </mxGeometry>
        </mxCell>
        <mxCell id="abRWXBSKvTAX0bOtiReh-3" value="" style="endArrow=none;html=1;rounded=0;entryX=0.5;entryY=1;entryDx=0;entryDy=0;exitX=0.5;exitY=0;exitDx=0;exitDy=0;" edge="1" parent="WIyWlLk6GJQsqaUBKTNV-1" source="znPdE1hkmuj4i7SLbsEQ-2" target="znPdE1hkmuj4i7SLbsEQ-31">
          <mxGeometry width="50" height="50" relative="1" as="geometry">
            <mxPoint x="860" as="sourcePoint" />
            <mxPoint x="910" y="-50" as="targetPoint" />
          </mxGeometry>
        </mxCell>
        <mxCell id="abRWXBSKvTAX0bOtiReh-4" value="" style="endArrow=none;html=1;rounded=0;entryX=1;entryY=0.5;entryDx=0;entryDy=0;exitX=0;exitY=0.5;exitDx=0;exitDy=0;" edge="1" parent="WIyWlLk6GJQsqaUBKTNV-1" source="znPdE1hkmuj4i7SLbsEQ-31" target="znPdE1hkmuj4i7SLbsEQ-1">
          <mxGeometry width="50" height="50" relative="1" as="geometry">
            <mxPoint x="60" y="310" as="sourcePoint" />
            <mxPoint x="110" y="260" as="targetPoint" />
          </mxGeometry>
        </mxCell>
        <mxCell id="abRWXBSKvTAX0bOtiReh-5" value="" style="triangle;whiteSpace=wrap;html=1;rotation=0;" vertex="1" parent="WIyWlLk6GJQsqaUBKTNV-1">
          <mxGeometry x="1490" y="-20" width="60" height="80" as="geometry" />
        </mxCell>
        <mxCell id="abRWXBSKvTAX0bOtiReh-6" value="" style="ellipse;whiteSpace=wrap;html=1;aspect=fixed;" vertex="1" parent="WIyWlLk6GJQsqaUBKTNV-1">
          <mxGeometry x="1520" width="40" height="40" as="geometry" />
        </mxCell>
        <mxCell id="abRWXBSKvTAX0bOtiReh-7" value="" style="verticalLabelPosition=bottom;verticalAlign=top;html=1;shape=mxgraph.basic.arc;startAngle=0.5283443714492546;endAngle=0.9621472365003013;rotation=-180;" vertex="1" parent="WIyWlLk6GJQsqaUBKTNV-1">
          <mxGeometry x="1460" y="-30" width="100" height="100" as="geometry" />
        </mxCell>
        <mxCell id="abRWXBSKvTAX0bOtiReh-8" value="" style="endArrow=none;html=1;rounded=0;entryX=1;entryY=0.5;entryDx=0;entryDy=0;exitX=0;exitY=0.5;exitDx=0;exitDy=0;" edge="1" parent="WIyWlLk6GJQsqaUBKTNV-1" source="abRWXBSKvTAX0bOtiReh-5" target="znPdE1hkmuj4i7SLbsEQ-3">
          <mxGeometry width="50" height="50" relative="1" as="geometry">
            <mxPoint x="1250" y="160" as="sourcePoint" />
            <mxPoint x="1300" y="110" as="targetPoint" />
          </mxGeometry>
        </mxCell>
        <mxCell id="abRWXBSKvTAX0bOtiReh-9" value="" style="endArrow=none;html=1;rounded=0;entryX=0;entryY=0.497;entryDx=0;entryDy=0;entryPerimeter=0;exitX=0;exitY=1;exitDx=0;exitDy=0;" edge="1" parent="WIyWlLk6GJQsqaUBKTNV-1" source="znPdE1hkmuj4i7SLbsEQ-16" target="abRWXBSKvTAX0bOtiReh-7">
          <mxGeometry width="50" height="50" relative="1" as="geometry">
            <mxPoint x="1300" y="30" as="sourcePoint" />
            <mxPoint x="1350" y="-20" as="targetPoint" />
          </mxGeometry>
        </mxCell>
        <mxCell id="abRWXBSKvTAX0bOtiReh-10" value="" style="endArrow=none;html=1;rounded=0;entryX=0;entryY=0.5;entryDx=0;entryDy=0;entryPerimeter=0;exitX=0;exitY=0;exitDx=0;exitDy=0;" edge="1" parent="WIyWlLk6GJQsqaUBKTNV-1" source="znPdE1hkmuj4i7SLbsEQ-17" target="abRWXBSKvTAX0bOtiReh-7">
          <mxGeometry width="50" height="50" relative="1" as="geometry">
            <mxPoint x="1440" y="340" as="sourcePoint" />
            <mxPoint x="1490" y="290" as="targetPoint" />
          </mxGeometry>
        </mxCell>
        <mxCell id="abRWXBSKvTAX0bOtiReh-11" value="" style="endArrow=none;html=1;rounded=0;entryX=1;entryY=0.5;entryDx=0;entryDy=0;exitX=0;exitY=0.5;exitDx=0;exitDy=0;" edge="1" parent="WIyWlLk6GJQsqaUBKTNV-1" source="znPdE1hkmuj4i7SLbsEQ-3" target="znPdE1hkmuj4i7SLbsEQ-31">
          <mxGeometry width="50" height="50" relative="1" as="geometry">
            <mxPoint x="1240" y="360" as="sourcePoint" />
            <mxPoint x="1290" y="310" as="targetPoint" />
          </mxGeometry>
        </mxCell>
        <mxCell id="abRWXBSKvTAX0bOtiReh-12" value="" style="endArrow=none;html=1;rounded=0;entryX=0.5;entryY=0;entryDx=0;entryDy=0;exitX=0.5;exitY=1;exitDx=0;exitDy=0;" edge="1" parent="WIyWlLk6GJQsqaUBKTNV-1" source="znPdE1hkmuj4i7SLbsEQ-29" target="znPdE1hkmuj4i7SLbsEQ-31">
          <mxGeometry width="50" height="50" relative="1" as="geometry">
            <mxPoint x="1340" y="490" as="sourcePoint" />
            <mxPoint x="1390" y="440" as="targetPoint" />
          </mxGeometry>
        </mxCell>
        <mxCell id="abRWXBSKvTAX0bOtiReh-14" value="" style="endArrow=none;html=1;rounded=0;entryX=0.5;entryY=0;entryDx=0;entryDy=0;exitX=0.5;exitY=1;exitDx=0;exitDy=0;" edge="1" parent="WIyWlLk6GJQsqaUBKTNV-1" source="znPdE1hkmuj4i7SLbsEQ-0" target="znPdE1hkmuj4i7SLbsEQ-30">
          <mxGeometry width="50" height="50" relative="1" as="geometry">
            <mxPoint x="980" y="-330" as="sourcePoint" />
            <mxPoint x="1030" y="-380" as="targetPoint" />
          </mxGeometry>
        </mxCell>
        <mxCell id="abRWXBSKvTAX0bOtiReh-15" value="" style="endArrow=none;html=1;rounded=0;exitX=0.5;exitY=1;exitDx=0;exitDy=0;entryX=0.5;entryY=0;entryDx=0;entryDy=0;" edge="1" parent="WIyWlLk6GJQsqaUBKTNV-1" source="znPdE1hkmuj4i7SLbsEQ-30" target="znPdE1hkmuj4i7SLbsEQ-29">
          <mxGeometry width="50" height="50" relative="1" as="geometry">
            <mxPoint x="980" y="-330" as="sourcePoint" />
            <mxPoint x="1030" y="-380" as="targetPoint" />
          </mxGeometry>
        </mxCell>
      </root>
    </mxGraphModel>
  </diagram>
</mxfile>
